<svg width="244.04" height="336" xmlns="http://www.w3.org/2000/svg"><defs><clipPath clipPathUnits="userSpaceOnUse" id="a"><path d="M915.168 263.121c-228.031 0-447.895 71.77-630.633 204.109v1585.88c182.719 132.33 402.621 204.12 630.633 204.12.02 0-.012 0 0 0 228.032 0 447.902-71.78 630.632-204.12V467.23c-182.72-132.332-402.61-204.109-630.624-204.109h-.008z"/></clipPath><clipPath clipPathUnits="userSpaceOnUse" id="b"><path d="M915.168 263.121c-228.031 0-447.895 71.77-630.633 204.109v1585.88c182.719 132.33 402.621 204.12 630.633 204.12.02 0-.012 0 0 0 228.032 0 447.902-71.78 630.632-204.12V467.23c-182.72-132.332-402.61-204.109-630.624-204.109h-.008z"/></clipPath><clipPath clipPathUnits="userSpaceOnUse" id="c"><path d="M915.168 263.121c-228.031 0-447.895 71.77-630.633 204.109v1585.88c182.719 132.33 402.621 204.12 630.633 204.12.02 0-.012 0 0 0 228.032 0 447.902-71.78 630.632-204.12V467.23c-182.72-132.332-402.61-204.109-630.624-204.109h-.008z"/></clipPath><clipPath clipPathUnits="userSpaceOnUse" id="d"><path d="M915.168 263.121c-228.031 0-447.895 71.77-630.633 204.109v1585.88c182.719 132.33 402.621 204.12 630.633 204.12.02 0-.012 0 0 0 228.032 0 447.902-71.78 630.632-204.12V467.23c-182.72-132.332-402.61-204.109-630.624-204.109h-.008z"/></clipPath><clipPath clipPathUnits="userSpaceOnUse" id="e"><path d="M915.168 263.121c-228.031 0-447.895 71.77-630.633 204.109v1585.88c182.719 132.33 402.621 204.12 630.633 204.12.02 0-.012 0 0 0 228.032 0 447.902-71.78 630.632-204.12V467.23c-182.72-132.332-402.61-204.109-630.624-204.109h-.008z"/></clipPath><clipPath clipPathUnits="userSpaceOnUse" id="f"><path d="M915.168 263.121c-228.031 0-447.895 71.77-630.633 204.109v1585.88c182.719 132.33 402.621 204.12 630.633 204.12.02 0-.012 0 0 0 228.032 0 447.902-71.78 630.632-204.12V467.23c-182.72-132.332-402.61-204.109-630.624-204.109h-.008z"/></clipPath></defs><path d="M0 48.479v238.996c69.282 63.092 171.252 66.289 244.044.001l.001-57.07V48.48C173.067-16.157 70.976-16.161.001 48.479" fill="#c9d0dc"/><path d="M237.035 51.576c-65.186-59.361-164.84-59.361-230.025 0v232.801c65.185 59.363 164.84 59.363 230.025.002V51.576" fill="#010a10"/><path d="M26.708 275.356c55.467 45.108 135.161 45.104 190.63 0l-.002-214.757C161.871 15.49 82.174 15.493 26.706 60.6zm-7.853 3.69L18.854 56.91C80.41 5.6 165.079 6.804 225.189 56.909l.003 222.136c-60.779 50.74-145.559 50.74-206.337 0" fill="#107fcb"/><path d="M186.675 106.024c0 33.94-27.954 61.455-62.436 61.455s-62.436-27.515-62.436-61.455 27.954-61.455 62.436-61.455 62.436 27.515 62.436 61.455" fill="#fff"/><path d="M140.125 123.58h6.592l-.333-9.348zm25.042-.127h6.558l-.317-9.313zm7.097 11.244h7.213C169.01 154.195 148.2 167.48 124.24 167.48c-34.482 0-62.436-27.515-62.436-61.455s27.954-61.455 62.436-61.455c34.484 0 62.436 27.515 62.436 61.455 0 9.085-2.003 17.71-5.598 25.47l-1.805-25.9h-16.201l-1.912 6.649h2.517l-7.993 12.484-1.127-19.134h-16.427l-1.872 6.619 2.507.03-10.725 16.027-8.838-.038c-.925 0-4.5-.844-4.5-5.192 0-4.359 4.215-10.676 8.492-10.676l1.8.042-.938 3.298h7.867l2.825-10.11h-12.125c-7.536 0-13.625 5.3-15.55 10.767l3.15-10.767H99.43l-1.896 6.65 2.787-.007-2.807 9.733-7.077-16.376h-10.07l-1.895 6.65h2.767l-6.261 22.454h8.064s3.118-11.134 3.92-13.992c1.14 2.704 5.886 13.992 5.886 13.992h8.979l4.119-14.269a19.187 19.187 0 00-.013 6.545c.788 4.672 5.412 7.724 10.448 7.724h16.301l2.817-4.185h11.504l.233 4.185h10.164l2.63-4.185h11.766l.467 4.185M190.664 139.67c0 2.15-1.777 3.9-3.963 3.9s-3.962-1.75-3.962-3.9c0-2.189 1.738-3.903 3.962-3.903 2.222 0 3.963 1.714 3.963 3.902m-3.963-4.946c-2.772 0-5.026 2.218-5.026 4.946 0 2.728 2.254 4.947 5.026 4.947s5.026-2.219 5.026-4.947c0-2.773-2.207-4.946-5.026-4.946" fill="#45a5e1"/><path d="M187.985 138.6c0 .483-.461.808-.892.808h-1.305v-1.661h1.305c.43 0 .892.325.892.853m1.131 0c0-1.119-1.05-1.81-2.023-1.81h-2.416v5.78h1.111v-2.182h.708l1.455 2.183h1.345l-1.525-2.242c.478-.12 1.345-.597 1.345-1.729" fill="#45a5e1"/><path d="M1005.96 999.27c4.01 16.64 14.86 30.51 30.42 40.95 4.63-12.78 12.6-34.73 20.49-56.22-24-.359-42.98-.68-52.56-.852-.16 5.411.36 10.793 1.65 16.122M1167 962.02l-7.77-47.071c-35.74-3.648-54.16 2.16-68.31 37.242a1388.39 1388.39 0 00-4.63 11.637c48.22-1.039 80.71-1.808 80.71-1.808m-284.41-50.25c25.894 0 50.433-5.711 72.508-15.872.32-.136.64-.289.961-.429a43.287 43.287 0 0116.64-3.321c23.961 0 43.391 19.434 43.391 43.391 0 5.551-1.08 10.84-2.99 15.711a89.02 89.02 0 00-2.7 5.719c-1.22 2.812-2.22 5.652-3.07 8.492 20.01-.391 39.15-.789 56.79-1.16 1.03-2.801 2.05-5.531 3.03-8.172 14.77-39.688 25.42-70.258 108.46-64.289 2.08.148 3.8 1.742 4.14 3.789a7106.261 7106.261 0 0113.55 85.512c.35 2.308-1.42 4.41-3.76 4.39-37.07-.242-77.29-.742-111.3-1.211-9 23.04-19 48.95-25.36 64.91 23.23 10.26 52.92 14.68 84.95 11.84-13.97 77.18-81.46 135.74-162.662 135.74-91.324 0-165.355-74.03-165.355-165.36 0-47.72 20.257-90.712 52.593-120.891 6.629.769 13.352 1.211 20.184 1.211" transform="matrix(.13333 0 0 -.13333 0 336)" clip-path="url(#a)" fill="#fff"/><path d="M1488.14 526.5c-.27.641-.55 1.262-.83 1.891 1.57 15.078 11.08 150.898-145.78 210.257 13.4 99.782-266.18 102.403-366.776 98.301-36.844-1.5-73.574-4.238-108.75-8.429.027-.09.059-.168.086-.25-142.113-16.969-258.488-58-250.727-139.782-49.047-8.047-89.84-31.437-89.84-31.437 3.957 81.66 38.672 149.238 61.747 185.679 43.46 30.719 71.679 78.45 78.289 130.532a189.921 189.921 0 01-20.532 18.136c-5.761 38.692-104.562 63.012-137.851 37.362a190.382 190.382 0 01-35.906-8.07c-71.446-23.569-119.329-85.71-128.215-155.678 29.453-30.141 68.343-49.653 110.101-55.282-34.484-78.808-45.797-173.859-76.988-278.449 144.875-55.961 250.395 19.68 373.145 29.418 37.476-84.347 108.796-403.89 108.796-403.89l396.431 142.203c-40.94 208.699.75 130.687 20.69 235.847 58.32-28.031 124.28-41.859 212.91-8.359" transform="matrix(.13333 0 0 -.13333 0 336)" clip-path="url(#b)" fill="#fff"/><path d="M866.004 828.52c22.879-70.61 83.625-98.848 83.625-98.848 35.215 63.297 86.941 94.418 118.291 108.316-30.49.633-61.86.242-93.166-1.039-36.844-1.5-73.574-4.238-108.75-8.429" transform="matrix(.13333 0 0 -.13333 0 336)" clip-path="url(#c)" fill="#c9d0dc"/><path d="M1026.06 756.969c24.01-12.168 55.08-38.059 46.59-66.809-8.49-28.738-53.68-17.808-59.18-44.98 172.99 9.871 252.93-202.489 474.67-118.68-46.86 111.07-175.54 133.859-175.54 133.859-21.18-12.468-41.19-14.75-60.47-10.699-78.44 16.442-144.59 137.918-226.07 107.309" transform="matrix(.13333 0 0 -.13333 0 336)" clip-path="url(#d)" fill="#c9d0dc"/><path d="M375.387 531.219c145.179-56.078 250.918 19.703 373.926 29.48 37.574-84.539 81.941-298.808 105.105-403.89h241.592c-24.05 121.113-79.39 210.05-115.674 287.461 0 0-33.328.652-66.395 7.878C833.578 623.602 728.676 691.699 652.32 681.82c23.121-9.968 43.891-30.172 62.543-57.601-100.386-53.399-227.312-54-227.312-54 5.344 51.492 37.515 87.043 37.515 87.043 3.965 81.84 38.754 149.558 61.879 186.078 43.489 30.75 71.758 78.488 78.426 130.601-39.058-43.3-89.574-77.339-148.918-96.91-58.265-19.222-117.984-22.152-174.246-11.312 0-.02-.012-.039-.012-.059 29.524-30.199 68.496-49.75 110.344-55.39-34.559-78.981-45.894-174.239-77.152-279.051" transform="matrix(.13333 0 0 -.13333 0 336)" clip-path="url(#e)" fill="#c9d0dc"/><path d="M984.801 966.012a41.827 41.827 0 00-8.52-11.071c-3.867-3.57-8.511-5.992-13.609-7.339-3.59-.954-7.406-1.321-11.379-1.172 2.406.422 4.672 1.191 6.73 2.32a20.51 20.51 0 013.832 2.75c10.297 9.52 13.161 26.422-3.96 40.5-20.5 16.85-49.418 12.99-56.2 6.391-3.875-3.762-.566-15.61 7.758-27.7a165.695 165.695 0 00-10.277 7.438c-38.86 30.331-63.875 77.561-63.875 130.671 0 4.02.199 7.99.484 11.92-16.437-25.72-26.086-56.21-26.086-89 0-47.829 20.301-90.911 52.707-121.161 6.645.769 13.383 1.211 20.227 1.211 25.949 0 50.543-5.719 72.668-15.899.32-.152.637-.293.961-.43a43.264 43.264 0 0116.676-3.332c24.011 0 43.482 19.473 43.482 43.493 0 5.546-1.08 10.859-2.99 15.738a89.443 89.443 0 00-2.71 5.73c-1.22 2.821-2.22 5.649-3.08 8.5-6.43.129-21.738.43-22.839.442" transform="matrix(.13333 0 0 -.13333 0 336)" clip-path="url(#f)" fill="#c9d0dc"/></svg>